<?xml version="1.0" encoding="UTF-8" standalone="no"?>
<!-- Created with Inkscape (http://www.inkscape.org/) -->

<svg
   xmlns:dc="http://purl.org/dc/elements/1.1/"
   xmlns:cc="http://creativecommons.org/ns#"
   xmlns:rdf="http://www.w3.org/1999/02/22-rdf-syntax-ns#"
   xmlns:svg="http://www.w3.org/2000/svg"
   xmlns="http://www.w3.org/2000/svg"
   version="1.1"
   width="438.77499"
   height="65.525002"
   id="svg2"
   xml:space="preserve"><metadata
     id="metadata8"><rdf:RDF><cc:Work
         rdf:about=""><dc:format>image/svg+xml</dc:format><dc:type
           rdf:resource="http://purl.org/dc/dcmitype/StillImage" /><dc:title></dc:title></cc:Work></rdf:RDF></metadata><defs
     id="defs6" /><g
     transform="matrix(1.25,0,0,-1.25,0,65.525)"
     id="g10"><g
       transform="scale(0.1,0.1)"
	style="fill:#33475f;fill-opacity:1;fill-rule:nonzero;stroke:none"
       id="g12"><path
         d="m 3113.85,405.715 -45.45,0 c -12.54,0 -22.71,-10.156 -22.71,-22.695 l 0,-172.93 c 0,-22.016 -2.91,-39.727 -8.75,-53.125 -11.27,-24.746 -32.13,-37.11 -62.58,-37.11 -23.77,0 -39.71,8.692 -47.85,26.09 -4.59,9.868 -6.88,24.535 -6.88,44.028 l 0,193.047 c 0,12.539 -10.17,22.695 -22.71,22.695 l -46.39,0 c -12.54,0 -22.71,-10.156 -22.71,-22.695 l 0,-193.047 c 0,-39.2 4.92,-68.852 14.74,-88.985 17.54,-36.4489 51.62,-54.6872 102.19,-54.6872 17.56,0 32.87,2.3047 45.94,6.8945 13.06,4.625 26.6,13.2188 40.6,25.7969 4.59,3.9883 8.58,8.5976 11.92,13.8281 3.32,5.2149 5.43,8.3787 6.25,9.4377 l 0,-27.6291 c 0,-12.5391 10.17,-22.6953 22.71,-22.6953 l 41.68,0 c 12.54,0 22.7,10.1562 22.7,22.6953 l 0,308.3911 c 0,12.539 -10.16,22.695 -22.7,22.695"
         id="path14"
          /><path
         d="m 2378.24,524.172 -45.47,0 c -12.54,0 -22.7,-10.156 -22.7,-22.695 l 0,-426.6606 c 0,-12.5391 10.16,-22.6992 22.7,-22.6992 l 45.47,0 c 12.54,0 22.69,10.1601 22.69,22.6992 l 0,426.6606 c 0,12.539 -10.15,22.695 -22.69,22.695"
         id="path16"
          /><path
         d="m 1578.1,405.813 -45.45,0 c -12.54,0 -22.71,-10.161 -22.71,-22.7 l 0,-308.2966 c 0,-12.5391 10.17,-22.6992 22.71,-22.6992 l 45.45,0 c 12.54,0 22.72,10.1601 22.72,22.6992 l 0,308.2966 c 0,12.539 -10.18,22.7 -22.72,22.7"
         id="path18"
         /><path
         d="m 1509.94,464.191 c 0,-12.539 10.17,-22.695 22.71,-22.695 l 45.45,0 c 12.54,0 22.72,10.156 22.72,22.695 l 0,37.286 c 0,12.539 -10.18,22.695 -22.72,22.695 l -45.45,0 c -12.54,0 -22.71,-10.156 -22.71,-22.695 l 0,-37.286"
         id="path20"
          /><path
         d="m 2675.84,149.387 c 14.05,18.609 21.08,45.097 21.08,79.414 0,34.336 -7.03,60.738 -21.08,79.273 -14.02,18.52 -34.16,27.778 -60.35,27.778 -26.21,0 -46.36,-9.258 -60.5,-27.778 -14.16,-18.535 -21.24,-44.937 -21.24,-79.273 0,-34.317 7.08,-60.805 21.24,-79.414 14.14,-18.633 34.29,-27.949 60.5,-27.949 26.19,0 46.33,9.316 60.35,27.949 z m 71.7,-49.5315 c -28.92,-35.7032 -72.83,-53.5547 -131.73,-53.5547 -58.91,0 -102.82,17.8515 -131.72,53.5547 -28.93,35.7035 -43.4,78.6915 -43.4,128.9455 0,49.433 14.47,92.246 43.4,128.476 28.9,36.231 72.81,54.356 131.72,54.356 58.9,0 102.81,-18.125 131.73,-54.356 28.93,-36.23 43.38,-79.043 43.38,-128.476 0,-50.254 -14.45,-93.242 -43.38,-128.9455"
         id="path22"
          /><path
         d="m 3402.04,151.008 c -13.21,-18.867 -32.48,-28.305 -57.86,-28.305 -25.35,0 -44.25,9.477 -56.73,28.457 -12.48,18.969 -18.71,44.281 -18.71,75.918 0,29.336 6.13,53.93 18.39,73.711 12.27,19.824 31.49,29.731 57.68,29.731 17.19,0 32.28,-5.469 45.29,-16.348 21.15,-18.051 31.76,-48.012 31.76,-89.926 0,-29.976 -6.62,-54.375 -19.82,-73.238 z m 85.45,373.164 -45.45,0 c -12.54,0 -22.72,-10.156 -22.72,-22.695 l 0,-144.239 c -10.04,16.129 -23.14,28.77 -39.3,37.891 -16.13,9.101 -34.57,13.648 -55.33,13.648 -45.06,0 -81.05,-16.754 -107.99,-50.289 -26.93,-33.539 -40.39,-79.535 -40.39,-138.008 0,-50.722 13.69,-92.285 41.02,-124.6519 27.36,-32.3828 61.05,-48.5703 101.07,-48.5703 24.32,0 44.65,4.6055 61,13.8281 16.35,9.2188 30.92,23.9844 43.71,44.3361 l 0,-30.6056 c 0,-12.5391 10.16,-22.6992 22.7,-22.6992 l 41.68,0 c 12.53,0 22.71,10.1601 22.71,22.6992 l 0,426.6606 c 0,12.539 -10.18,22.695 -22.71,22.695"
         id="path24"
          /><path
         d="m 1948.13,86.1445 0,-0.0234 -97.01,142.6799 92.32,142.898 0.04,0.039 c 1.92,3.321 3.01,7.188 3.01,11.309 0,12.539 -10.16,22.695 -22.7,22.695 l -50.7,0 c -8.36,0 -15.68,-4.531 -19.61,-11.289 l -52.34,-93.719 -53.51,93.77 0,-0.039 c -3.94,6.758 -11.25,11.289 -19.63,11.289 l -54.29,0 c -12.54,0 -22.7,-10.156 -22.7,-22.695 0,-4.121 1.09,-7.989 3.01,-11.313 l 0,-0.016 92.1,-142.929 -96.87,-142.6408 0,-0.0157 c -1.91,-3.3398 -3,-7.1914 -3,-11.3086 0,-12.539 10.15,-22.7187 22.69,-22.7187 l 53.09,0 c 8.38,0 15.68,4.5547 19.61,11.2891 l 0,0.0625 55.83,97.5002 55.31,-97.5627 c 3.92,-6.7344 11.25,-11.2891 19.61,-11.2891 l 56.05,0 c 12.54,0 22.72,10.1797 22.72,22.7187 0,4.1172 -1.1,7.9688 -3.03,11.3086"
         id="path26"
          /><path
         d="m 2268.77,159.738 c 0,1.973 -0.25,3.883 -0.72,5.723 -0.53,1.988 -1.31,3.887 -2.32,5.644 -3.91,6.778 -11.25,11.329 -19.65,11.329 l -45.45,0 c -10.59,0 -19.49,-7.246 -21.99,-17.051 -2.81,-10.473 -7.15,-19.453 -12.99,-26.953 -8.83,-11.313 -23.75,-16.992 -44.77,-16.992 -29.61,0 -49.78,14.257 -60.48,42.773 -5.9,15.254 -8.83,35.43 -8.83,60.508 0,26.347 2.93,47.461 8.83,63.355 11.11,29.961 31.81,44.961 62.07,44.961 21.23,0 36.87,-6.914 46.97,-20.758 3.69,-5.492 6.66,-11.347 8.87,-17.558 0,-0.024 0,-0.024 0,-0.039 0.5,-1.992 1.3,-3.891 2.32,-5.649 3.91,-6.773 11.25,-11.343 19.65,-11.343 l 47.34,0 c 12.54,0 22.7,10.156 22.7,22.695 0,1.972 -0.26,3.863 -0.71,5.683 l -0.02,0 c -7.65,33.907 -22.34,58.497 -44.06,73.805 -27.38,19.281 -62.58,28.906 -105.58,28.906 -50.57,0 -90.22,-16.328 -118.97,-49.019 -28.75,-32.695 -43.1,-78.457 -43.1,-137.231 0,-52.086 13,-94.468 39.02,-127.1637 26.02,-32.7149 66.6,-49.0625 121.78,-49.0625 55.19,0 96.83,19.6055 124.94,58.7892 11.05,15.254 19.06,31.094 24,47.5 0.43,1.426 0.84,2.832 1.21,4.258 l -0.29,0.039 c 0.12,0.933 0.23,1.875 0.23,2.851"
         id="path28"
          /><path
         d="m 1430.21,524.094 -116.16,0 c -8.4,0 -15.74,-4.571 -19.67,-11.348 -1,-1.738 -1.78,-3.633 -2.29,-5.605 l -63.6,-316.368 -64.64,316.387 c -0.52,2.012 -1.31,3.926 -2.32,5.684 -3.71,6.386 -10.47,10.859 -18.3,11.328 -0.45,0.039 -118.65,-0.117 -118.65,-0.117 -12.51,0 -22.57,-10.137 -22.59,-22.637 l 0,-426.6016 c 0,-12.5391 10.04,-22.6992 22.58,-22.6992 l 45.44,0 c 12.54,0 22.72,10.1601 22.72,22.6992 0,0 -0.12,349.3046 -0.12,358.1636 l 83.32,-363.8081 0,0 c 0.53,-2.0313 1.31,-3.9453 2.33,-5.7031 3.92,-6.7774 11.27,-11.3516 19.66,-11.3516 l 58.33,0 c 8.39,0 15.74,4.5742 19.66,11.3516 1.02,1.7578 1.82,3.6875 2.33,5.7031 l 1.27,5.6445 82.61,358.1636 c 0,-8.859 0.1,-358.1636 0.1,-358.1636 0,-12.5391 9.98,-22.6992 22.52,-22.6992 l 45.47,0 c 12.54,0 22.7,10.1601 22.7,22.6992 L 1453,501.398 c 0,12.52 -10.25,22.696 -22.79,22.696"
         id="path30"
          /><path
         d="m 813.422,0 c -5.656,0 -11.375,1.62109 -16.434,5 -13.57,9.1016 -17.191,27.4805 -8.117,41.0469 27.313,40.7383 41.758,88.4451 41.758,137.9571 0,49.523 -14.445,97.226 -41.738,137.961 -9.094,13.562 -5.485,31.933 8.097,41.027 13.555,9.098 31.922,5.465 41.032,-8.09 33.867,-50.507 51.75,-109.597 51.75,-170.898 0,-61.277 -17.883,-120.3829 -51.743,-170.8907 C 832.309,4.60156 822.965,0 813.422,0 l 0,0"
         id="path32"
         /><path
         d="m 728.813,48.0195 c -5.704,0 -11.477,1.6485 -16.555,5.0938 -13.528,9.164 -17.063,27.5508 -7.895,41.0859 18.008,26.5738 27.532,57.6248 27.532,89.8048 0,32.148 -9.528,63.223 -27.54,89.855 -9.16,13.512 -5.617,31.914 7.918,41.063 13.532,9.172 31.915,5.598 41.063,-7.918 24.672,-36.445 37.719,-78.984 37.719,-123 0,-44.055 -13.047,-86.5821 -37.731,-122.9962 -5.719,-8.4375 -15.023,-12.9883 -24.511,-12.9883 l 0,0"
         id="path34"
          /><path
         d="m 562.047,111.199 -404.195,0 c -54.422,0 -98.6957,44.121 -98.6957,98.371 0,54.27 44.2737,98.418 98.6957,98.418 26.406,0 51.195,-10.234 69.785,-28.836 11.551,-11.554 30.273,-11.554 41.836,0 11.547,11.551 11.547,30.262 0,41.825 -20.348,20.347 -45.371,34.273 -72.614,41.156 28.079,61.699 90.364,102.84 159.954,102.84 96.855,0 175.648,-78.641 175.648,-175.293 0,-18.828 -2.965,-37.285 -8.801,-54.895 -5.14,-15.5 3.25,-32.234 18.758,-37.383 3.09,-1.023 6.23,-1.511 9.32,-1.511 12.399,0 23.95,7.859 28.063,20.269 3.855,11.621 6.758,23.528 8.73,35.61 27.207,-10.598 46.559,-36.946 46.559,-67.766 0,-40.137 -32.766,-72.805 -73.043,-72.805 z m 28.418,201.594 C 578.789,431.262 478.461,524.133 356.813,524.133 256.02,524.133 166.77,459.449 134.656,365.254 58.6016,353.992 0,288.574 0,209.57 0,122.715 70.8164,52.0508 157.852,52.0508 l 404.195,0 c 72.891,0 132.191,59.1992 132.191,131.9532 0,63.008 -44.508,115.773 -103.773,128.789"
         id="path36"
       /></g></g></svg>
